OpenSim_Sub09_EMGStiffKnee_GRF.mot
version=1
nRows=58
nColumns=19
inDegrees=no
endheader
time	lFx	lFy	lFz	lCOPx	lCOPy	lCOPz	rFx	rFy	rFz	rCOPx	rCOPy	rCOPz	lMx	lMy	lMz	rMx	rMy	rMz
37.92000000	46.30199185	699.98144562	64.35838746	0.63154352	0	-0.69117299	-0.11925317	-0.22978513	0.10730640	-0.00000006	0	0.00000002	0	-0.54057646	0	0	0.00000001	0.00000000
37.93000000	49.32546230	700.26698946	63.40808094	0.62625232	0	-0.69130372	-0.07780348	-0.37314208	0.12235274	-0.00000011	0	0.00000004	0	-0.70312401	0	0	0.00000004	-0.00000000
37.94000000	52.17646350	701.26359107	62.57323013	0.62081450	0	-0.69143543	-0.07857330	-0.47493933	0.10336813	-0.00000011	0	0.00000004	0	-0.83401916	0	0	0.00000009	0.00000000
37.95000000	54.85947838	702.24779926	61.85877517	0.61535529	0	-0.69159051	-0.07540139	-0.58059100	0.10150099	0.00000010	0	-0.00000004	0	-0.93539549	0	0	0.00000012	0.00000000
37.96000000	57.37756222	702.75802780	61.16835400	0.60992999	0	-0.69177837	-0.06091787	-0.62015367	0.09317153	0.00000072	0	-0.00000028	0	-1.03192879	0	0	0.00000004	0.00000000
37.97000000	59.94797229	702.60775843	60.39058154	0.60445932	0	-0.69197800	-0.04560207	-0.57192059	0.07916773	0.00000182	0	-0.00000070	0	-1.13820944	0	0	-0.00000034	0.00000000
37.98000000	62.88090422	701.59822322	59.48515821	0.59875599	0	-0.69213932	-0.04267947	-0.46988729	0.06752657	0.00000284	0	-0.00000108	0	-1.24497034	0	0	-0.00000120	-0.00000000
37.99000000	66.34892868	699.35001967	58.65462562	0.59276437	0	-0.69222432	-0.03712485	-0.36789754	0.00480961	0.00000176	0	-0.00000066	0	-1.38829603	0	0	-0.00000235	0.00000000
38	70.12370585	695.46596014	58.17796693	0.58658241	0	-0.69228026	-0.00588276	-0.28595840	-0.01521550	-0.00000538	0	0.00000208	0	-1.58659910	0	0	-0.00000266	-0.00000000
38.01000000	74.01661534	689.73247469	58.08069549	0.58013644	0	-0.69238382	0.01807184	-0.19874419	0.01728599	-0.00002312	0	0.00000886	0	-1.78373924	0	0	0.00000077	0.00000000
38.02000000	78.01268604	682.08628525	58.24503009	0.57348073	0	-0.69254401	0.01350961	-0.15172287	0.04117707	-0.00005031	0	0.00001922	0	-1.96337970	0	0	0.00001246	0.00000000
38.03000000	82.06579839	672.56375458	58.52392733	0.56685819	0	-0.69271328	-0.00714032	-0.17529646	0.05337074	-0.00006624	0	0.00002517	0	-2.17617850	0	0	0.00003519	0.00000000
38.04000000	85.92008765	661.26777546	58.76179253	0.56069425	0	-0.69286192	-0.04832828	-0.20011396	0.06693263	-0.00001185	0	0.00000413	0	-2.46237232	0	0	0.00006037	-0.00000000
38.05000000	89.34618224	648.18258231	58.73600677	0.55498124	0	-0.69300185	-0.07490298	-0.20197707	0.06633935	0.00021493	0	-0.00008282	0	-2.77565305	0	0	0.00005126	0.00000000
38.06000000	92.31983333	632.94633349	58.20177555	0.54920043	0	-0.69312269	-0.07214649	-0.15855500	0.05838861	0.00070236	0	-0.00026898	0	-3.00136740	0	0	-0.00007215	0.00000000
38.07000000	94.81979180	614.91240476	56.93708139	0.54324898	0	-0.69320912	-0.07699956	0.01031156	0.07137535	0.00133342	0	-0.00050873	0	-3.08195831	0	0	-0.00041505	-0.00000000
38.08000000	96.62023981	593.02912845	54.60777969	0.53721633	0	-0.69323233	-0.08764414	0.29157292	0.10389955	0.00141551	0	-0.00053620	0	-2.93063548	0	0	-0.00099599	0.00000000
38.09000000	97.08597998	566.35494643	51.14339893	0.53126309	0	-0.69311706	-0.05344407	0.33689464	0.08713945	-0.00072633	0	0.00028887	0	-2.56084066	0	0	-0.00147279	-0.00000000
38.10000000	95.63575124	534.44822723	46.76112599	0.52538078	0	-0.69280300	0.08605048	-0.47138116	0.04876559	-0.00758919	0	0.00291684	0	-2.04433548	0	0	-0.00072839	0.00000000
38.11000000	91.85400621	497.36955929	41.82370275	0.51959213	0	-0.69229822	0.40532831	-2.96158345	0.04012017	-0.02046013	0	0.00782682	0	-1.44002079	0	0	0.00335662	-0.00000000
38.12000000	85.55723528	455.60484887	36.85982308	0.51408752	0	-0.69162841	0.88194155	-7.64771906	0.08807841	-0.03380742	0	0.01288088	0	-0.82973295	0	0	0.01302938	0.00000000
38.13000000	76.89765052	409.74762403	32.32710661	0.50925129	0	-0.69091824	1.16070970	-12.60905958	0.19888525	-0.02582987	0	0.00972247	0	-0.34526872	0	0	0.02712721	-0.00000000
38.14000000	66.50255526	360.28223723	28.37764575	0.50542601	0	-0.69038601	0.24349809	-9.98461836	0.34427505	0.04918370	0	-0.01910308	0	-0.06190324	0	0	0.03357253	0.00000000
38.15000000	55.20862650	308.33309153	24.84210218	0.50267808	0	-0.69055374	-3.57772472	16.96713352	0.35723259	0.24838998	0	-0.09530015	0	0.13253045	0	0	-0.00016938	0.00000000
38.16000000	43.74482450	256.12685788	21.79637284	0.50042451	0	-0.69221265	-11.83653184	89.53804616	-0.20464724	0.57333909	0	-0.21909227	0	0.21326629	0	0	-0.12793107	0
38.17000000	32.60027250	206.86423021	19.44814837	0.49728972	0	-0.69601738	-25.46033668	214.49329758	-2.35398489	0.87239826	0	-0.33205685	0	0.15038004	0	0	-0.43785556	0
38.18000000	22.19592184	163.88355505	17.75391591	0.49126130	0	-0.70128188	-50.73506881	366.42840381	-7.59543928	1.03311537	0	-0.39142851	0	-0.07839159	0	0	-0.80502671	0
38.19000000	13.18966576	128.71464704	16.45990402	0.47958769	0	-0.70309819	-88.09503353	504.46223072	-16.00681142	1.08451354	0	-0.40861610	0	-0.41559298	0	0	-1.17752798	0
38.20000000	5.97223806	100.83272044	15.30448290	0.46061928	0	-0.68913288	-124.09530339	604.40344209	-27.29049909	1.08518141	0	-0.40590022	0	-0.70932198	0	0	-1.40402994	0
38.21000000	0.34545174	78.60640845	14.28874831	0.43230480	0	-0.64030774	-146.91329927	663.06603575	-41.78718487	1.07284924	0	-0.39830673	0	-0.75582596	0	0	-1.64858487	0
38.22000000	-4.21396792	60.46947328	13.43399744	0.38557026	0	-0.54039241	-160.06954109	690.73415647	-57.31610835	1.06108062	0	-0.39205934	0	-0.40321822	0	0	-1.85892795	0
38.23000000	-7.63460371	45.10994783	12.58372285	0.30836855	0	-0.39827778	-169.17107678	704.83477353	-72.24275623	1.05292065	0	-0.38811801	0	0.01529617	0	0	-1.87492440	0.00000000
38.24000000	-9.16683203	31.53118695	11.31486940	0.20084162	0	-0.23915315	-177.36849449	717.82545564	-86.20854927	1.04828944	0	-0.38576304	0	0.23389490	0	0	-1.81916043	0
38.25000000	-8.18480907	19.61321292	9.44973419	0.09052971	0	-0.09870565	-183.78021706	730.25774457	-97.43933765	1.04593229	0	-0.38433031	0	0.22895337	0	0	-2.00308710	0
38.26000000	-4.89966809	9.77674234	7.11839076	0.02009637	0	-0.01659323	-184.73601570	740.16854242	-103.84456792	1.04453928	0	-0.38348617	0	0.12307657	0	0	-2.34608673	-0.00000000
38.27000000	-1.16122305	3.01280522	5.05327587	-0.00766313	0	0.01264524	-180.52549486	748.80826104	-105.72159158	1.04270401	0	-0.38316243	0	0.03890443	0	0	-2.81580989	-0.00000000
38.28000000	1.28144065	-0.23316858	3.98438393	-0.01148159	0	0.01457674	-172.57559191	755.05594375	-103.87604361	1.03976436	0	-0.38327566	0	-0.00107421	0	0	-3.33701791	-0.00000000
38.29000000	2.25637591	-1.01977171	3.57720454	-0.00724112	0	0.00842406	-162.54249723	756.04765665	-99.42340938	1.03602112	0	-0.38369538	0	-0.01112648	0	0	-3.78571352	-0.00000000
38.30000000	2.38518102	-0.79043628	3.46103728	-0.00281338	0	0.00295138	-151.65046912	751.43673290	-93.52522145	1.03210421	0	-0.38432211	0	-0.00869230	0	0	-4.15565727	-0.00000000
38.31000000	2.21083044	-0.34803268	3.44005682	-0.00035988	0	0.00015924	-140.35858836	742.23349108	-86.77979387	1.02814727	0	-0.38504995	0	-0.00407768	0	0	-4.56010268	0
38.32000000	2.02069594	0.03572894	3.38894113	0.00045164	0	-0.00064989	-129.41658387	728.59723821	-80.54794342	1.02435084	0	-0.38580876	0	-0.00099707	0	0	-4.95474115	-0.00000000
38.33000000	1.87735245	0.31808450	3.36019454	0.00045924	0	-0.00056625	-119.76916094	710.81103106	-75.92490811	1.02086041	0	-0.38654832	0	0.00027105	0	0	-5.26560182	0
38.34000000	1.75229796	0.50341995	3.30661899	0.00025136	0	-0.00028540	-111.31148157	691.03948876	-72.51818406	1.01768595	0	-0.38721166	0	0.00048160	0	0	-5.58263687	-0.00000000
38.35000000	1.63760749	0.51168432	3.21263049	0.00008165	0	-0.00008089	-103.36305941	672.23450621	-69.88011431	1.01448057	0	-0.38778270	0	0.00031702	0	0	-5.79304671	0
38.36000000	1.55067655	0.37358502	3.07846917	-0.00000042	0	0.00001001	-95.58567920	655.75192135	-67.77135045	1.01115972	0	-0.38828022	0	0.00012873	0	0	-5.83886340	0
38.37000000	1.48196473	0.21061137	2.97798636	-0.00002187	0	0.00002941	-88.18368058	641.41824360	-65.76239953	1.00770605	0	-0.38870338	0	0.00002024	0	0	-5.91723921	0
38.38000000	1.41332478	0.12653702	2.94808649	-0.00001753	0	0.00002108	-81.62681748	628.98838881	-64.10885400	1.00398626	0	-0.38904168	0	-0.00001762	0	0	-6.03230600	0
38.39000000	1.34780410	0.11546510	2.93324750	-0.00000838	0	0.00000925	-76.29861098	618.57306596	-63.45804045	1.00013613	0	-0.38925804	0	-0.00001955	0	0	-6.08643497	0.00000000
38.40000000	1.29527783	0.10424569	2.96882828	-0.00000213	0	0.00000190	-72.25515343	610.14898174	-63.62422021	0.99623615	0	-0.38930506	0	-0.00001113	0	0	-6.19434866	0
38.41000000	1.25656419	0.05596211	3.01875416	0.00000049	0	-0.00000090	-69.25870917	603.66293612	-63.95254135	0.99228462	0	-0.38925255	0	-0.00000382	0	0	-6.31284983	0
38.42000000	1.24239367	-0.03830164	3.05707976	0.00000096	0	-0.00000123	-66.93294606	599.20231661	-63.89103018	0.98817825	0	-0.38920634	0	-0.00000015	0	0	-6.32356266	0.00000000
38.43000000	1.25981143	-0.14121606	3.07066796	0.00000064	0	-0.00000075	-64.90353651	596.95185134	-63.08021297	0.98378895	0	-0.38916692	0	0.00000089	0	0	-6.30456211	0
38.44000000	1.28216821	-0.20480730	3.04301172	0.00000027	0	-0.00000028	-62.69991698	596.81687750	-61.80442558	0.97893841	0	-0.38916188	0	0.00000076	0	0	-6.25754973	0
38.45000000	1.25477421	-0.20790307	3.04507678	0.00000005	0	-0.00000003	-60.29147078	598.52859447	-60.57517169	0.97365311	0	-0.38924386	0	0.00000037	0	0	-6.08636748	-0.00000000
38.46000000	1.17347170	-0.20279818	3.05908637	-0.00000003	0	0.00000005	-58.04886554	601.82172848	-59.49734465	0.96799541	0	-0.38938554	0	0.00000010	0	0	-5.84449467	0
38.47000000	1.08822698	-0.12970781	3.06879886	-0.00000004	0	0.00000005	-56.17355366	606.33443925	-58.75464654	0.96189281	0	-0.38950880	0	-0.00000002	0	0	-5.60229989	0.00000000
38.48000000	1.00712380	0.00900776	3.07081294	-0.00000002	0	0.00000002	-54.52802372	611.61207801	-58.62525867	0.95520191	0	-0.38958614	0	-0.00000004	0	0	-5.31375516	-0.00000000
38.49000000	0.93879899	0.18656815	3.07298905	-0.00000000	0	0.00000000	-52.82839988	617.58368831	-59.00883406	0.94802913	0	-0.38957055	0	-0.00000002	0	0	-5.01147178	0
